PathFileType	4	(X/Y/Z)	/Users/itak/Documents/Research/Walk-IL/dataset/trc/00184_00008.trc
DataRate	CameraRate	NumFrames	NumMarkers	Units	OrigDataRate	OrigDataStartFrame	OrigNumFrames
100.000000	100.000000	4	53	mm	100.000000	98	789
Frame#	Time	RPSI			LPSI			L3			STRN			T10			C7			CLAV			RBAK			LBAK			LSHO			LUPA			LAEL			LAOL			LWTS			LWPS			LFRA			LIFD			LHPS			LHTS			RSHO			RUPA			RAEL			RAOL			RWTS			RWPS			RFRA			RIFD			RHTS			RHPS			RBHD			LFHD			RFHD			LBHD			LHIP			RHIP			RASI			LASI			LKNE			LTHI			LANK			LTIP			LTOE			LMT1			LMT5			LHEE			RKNE			RTHI			RANK			RTIP			RTOE			RMT1			RMT5			RHEE			
		X1	Y1	Z1	X2	Y2	Z2	X3	Y3	Z3	X4	Y4	Z4	X5	Y5	Z5	X6	Y6	Z6	X7	Y7	Z7	X8	Y8	Z8	X9	Y9	Z9	X10	Y10	Z10	X11	Y11	Z11	X12	Y12	Z12	X13	Y13	Z13	X14	Y14	Z14	X15	Y15	Z15	X16	Y16	Z16	X17	Y17	Z17	X18	Y18	Z18	X19	Y19	Z19	X20	Y20	Z20	X21	Y21	Z21	X22	Y22	Z22	X23	Y23	Z23	X24	Y24	Z24	X25	Y25	Z25	X26	Y26	Z26	X27	Y27	Z27	X28	Y28	Z28	X29	Y29	Z29	X30	Y30	Z30	X31	Y31	Z31	X32	Y32	Z32	X33	Y33	Z33	X34	Y34	Z34	X35	Y35	Z35	X36	Y36	Z36	X37	Y37	Z37	X38	Y38	Z38	X39	Y39	Z39	X40	Y40	Z40	X41	Y41	Z41	X42	Y42	Z42	X43	Y43	Z43	X44	Y44	Z44	X45	Y45	Z45	X46	Y46	Z46	X47	Y47	Z47	X48	Y48	Z48	X49	Y49	Z49	X50	Y50	Z50	X51	Y51	Z51	X52	Y52	Z52	X53	Y53	Z53	

99	0.98	54.85301208496094	1037.921142578125	1474.171997070312	31.48298072814941	1037.442504882812	1354.110961914062	47.52219009399414	1077.01806640625	1418.5078125	323.223388671875	1266.334106445312	1353.624755859375	28.32881736755371	1241.413696289062	1421.39404296875	115.4831008911133	1502.491577148438	1383.427124023438	303.8409423828125	1382.50732421875	1344.851806640625	58.2707633972168	1340.077026367188	1513.675170898438	82.562744140625	1477.93505859375	1289.62548828125	137.6030578613281	1455.750366210938	1195.786743164062	67.68845367431641	1329.368896484375	1141.03515625	37.91553497314453	1114.921997070312	1134.045776367188	18.82418060302734	1106.617431640625	1221.668090820312	115.3690948486328	867.7954711914062	1136.284790039062	21.06237602233887	861.02197265625	1126.468872070312	28.42257690429688	1004.052124023438	1121.826171875	106.0120162963867	685.4664306640625	1166.868408203125	32.24338150024414	788.5433959960938	1128.363891601562	104.2052154541016	787.8829956054688	1118.23486328125	216.3072509765625	1482.887084960938	1545.681884765625	207.2565460205078	1423.176635742188	1622.059204101562	178.2914733886719	1145.034057617188	1704.734619140625	146.9155578613281	1130.546752929688	1613.74267578125	278.338134765625	898.7379760742188	1679.7529296875	216.9870300292969	898.4056396484375	1744.495239257812	198.896484375	1072.317626953125	1724.21923828125	258.2512512207031	710.7972412109375	1669.833374023438	292.9202880859375	802.4483642578125	1691.997314453125	232.7357482910156	812.1417846679688	1744.454833984375	225.2935791015625	1662.034423828125	1434.210205078125	304.9521789550781	1682.162719726562	1232.313720703125	371.3819580078125	1689.08935546875	1343.597290039062	147.9508972167969	1662.444458007812	1320.415405273438	111.5277633666992	979.5618896484375	1214.848754882812	225.2723236083984	989.3864135742188	1571.390380859375	298.5938415527344	1013.949829101562	1504.626831054688	245.2225494384766	1012.066345214844	1252.8466796875	344.4911499023438	521.11083984375	1182.408813476562	269.2116394042969	648.9669799804688	1173.728149414062	434.5847778320312	49.42234420776367	1184.5498046875	379.5603942871094	290.178466796875	1169.960083007812	612.6163940429688	138.6539611816406	1103.895629882812	599.6793823242188	118.4555511474609	1167.1796875	504.7874145507812	78.30692291259766	1099.468017578125	424.2537536621094	39.72772216796875	1267.229370117188	144.7287292480469	496.8263549804688	1541.741333007812	244.1207275390625	754.236083984375	1565.23876953125	-72.97554016113281	44.89274978637695	1545.727783203125	121.533576965332	372.8895263671875	1524.540161132812	148.9560546875	46.17676162719727	1514.807861328125	95.59784698486328	47.65700531005859	1468.401611328125	37.8984489440918	38.82918548583984	1585.77197265625	-124.0242080688477	48.50986480712891	1476.904541015625	
100	0.99	60.92412948608398	1036.351196289062	1471.695556640625	37.45756530761719	1035.936157226562	1351.658203125	53.45902252197266	1075.605834960938	1415.989013671875	329.0636901855469	1264.997802734375	1350.667602539062	34.22797012329102	1239.898315429688	1418.882690429688	121.1162643432617	1501.0068359375	1380.396362304688	309.548583984375	1381.10498046875	1341.668579101562	64.36321258544922	1338.556762695312	1510.979370117188	88.08309173583984	1476.283447265625	1286.687133789062	142.9095611572266	1453.987915039062	1192.8125	72.48703765869141	1327.656372070312	1138.613037109375	41.81489944458008	1113.407836914062	1132.26123046875	23.22884750366211	1105.388916015625	1220.065795898438	117.3001480102539	865.667236328125	1134.780395507812	22.84587860107422	859.6837158203125	1125.339111328125	31.49065971374512	1002.643920898438	1120.36328125	106.3775100708008	683.4752807617188	1165.946533203125	33.42644500732422	787.1358642578125	1127.475830078125	105.2486724853516	785.744384765625	1117.056030273438	222.2308807373047	1481.791137695312	1542.51611328125	213.3672485351562	1422.182861328125	1619.009155273438	185.1267852783203	1144.195556640625	1702.385131835938	153.5836486816406	1129.3564453125	1611.487182617188	285.8037719726562	898.1098022460938	1677.778930664062	224.5638427734375	897.7422485351562	1742.598022460938	205.9228363037109	1071.55712890625	1721.97509765625	266.3139953613281	710.1392822265625	1668.368286132812	300.7114868164062	801.951171875	1690.256958007812	240.5509643554688	811.5384521484375	1742.74853515625	230.7349700927734	1660.603881835938	1430.8818359375	309.8534545898438	1680.7509765625	1228.763305664062	376.5361633300781	1687.9013671875	1339.863159179688	153.1468963623047	1660.734741210938	1317.257568359375	117.5936050415039	977.8496704101562	1212.546752929688	230.92333984375	988.1054077148438	1569.161499023438	304.3824768066406	1012.57861328125	1502.399169921875	251.3313293457031	1010.349670410156	1250.546875	349.4692687988281	519.374267578125	1181.113525390625	274.0863647460938	646.629150390625	1172.053833007812	446.060546875	49.43839645385742	1180.443481445312	387.6009216308594	289.5408020019531	1167.44873046875	622.5194702148438	141.1245269775391	1098.7666015625	610.3043212890625	120.4167327880859	1162.011108398438	515.2433471679688	79.59641265869141	1094.920654296875	436.5764465332031	39.23425674438477	1263.148559570312	148.4668731689453	495.911865234375	1540.5732421875	248.957763671875	753.0376586914062	1563.500732421875	-72.71910858154297	45.50699234008789	1545.560791015625	124.3284072875977	371.9884033203125	1523.802612304688	148.9591979980469	46.08125686645508	1514.842163085938	95.65714263916016	47.65716552734375	1468.49462890625	37.90762329101562	38.74973297119141	1585.833374023438	-123.9297485351562	49.60405349731445	1476.799682617188	
101	1	67.08082580566406	1034.894653320312	1469.060180664062	43.59181594848633	1034.442993164062	1349.041748046875	59.53628158569336	1074.200439453125	1413.305053710938	335.0446472167969	1263.701293945312	1347.588745117188	40.25	1238.3935546875	1416.184814453125	126.8411712646484	1499.53662109375	1377.18115234375	315.3744812011719	1379.739501953125	1338.35400390625	70.56078338623047	1336.99658203125	1508.073364257812	93.72421264648438	1474.637084960938	1283.555908203125	148.3675384521484	1452.233154296875	1189.656372070312	77.45984649658203	1325.942626953125	1136.012084960938	45.88776397705078	1111.896850585938	1130.33251953125	27.81300926208496	1104.15966796875	1218.319946289062	119.483528137207	863.5787963867188	1133.159790039062	24.89287948608398	858.3609619140625	1124.109252929688	34.76923370361328	1001.237060546875	1118.769165039062	107.0579376220703	681.5344848632812	1164.93359375	34.88980484008789	785.739013671875	1126.4892578125	106.5559387207031	783.65185546875	1115.778930664062	228.2114868164062	1480.725708007812	1539.184204101562	219.5188293457031	1421.22314453125	1615.798217773438	192.0109405517578	1143.377807617188	1699.837646484375	160.3897857666016	1128.1064453125	1609.012329101562	293.4180908203125	897.5390014648438	1675.625610351562	232.2301483154297	897.10009765625	1740.475830078125	213.0165557861328	1070.818237304688	1719.53515625	274.5940856933594	709.5243530273438	1666.659912109375	308.6873474121094	801.5110473632812	1688.325805664062	248.4892272949219	810.9721069335938	1740.807006835938	236.2002258300781	1659.197021484375	1427.40673828125	314.8356323242188	1679.4033203125	1225.092407226562	381.7405395507812	1686.786987304688	1336.027709960938	158.4053649902344	1659.039794921875	1313.941284179688	123.8620986938477	976.1830444335938	1210.106323242188	236.6888427734375	986.8727416992188	1566.81787109375	310.3145446777344	1011.253295898438	1500.0869140625	257.6637573242188	1008.665954589844	1248.14013671875	354.7724609375	517.69775390625	1179.528686523438	279.3137817382812	644.4200439453125	1170.1455078125	456.4288635253906	49.28563690185547	1176.574951171875	395.34228515625	288.8011474609375	1164.913452148438	631.5817260742188	142.8732147216797	1093.95654296875	620.0094604492188	121.7183609008789	1157.136352539062	524.7013549804688	80.47792053222656	1090.647338867188	447.7297973632812	38.64497375488281	1259.305419921875	152.2689666748047	495.0787658691406	1539.4033203125	253.9007415771484	751.9146118164062	1561.721557617188	-72.45298767089844	46.2086181640625	1545.43310546875	127.2058563232422	371.1767578125	1523.0830078125	148.9631805419922	46.00924682617188	1514.881591796875	95.73248291015625	47.67148208618164	1468.603149414062	37.92527389526367	38.66835784912109	1585.891235351562	-123.8302307128906	50.88351058959961	1476.736328125	
102	1.01	73.33950042724609	1033.545776367188	1466.257446289062	49.89716339111328	1032.977416992188	1346.259033203125	65.7613525390625	1072.816162109375	1410.455810546875	341.1598815917969	1262.453491210938	1344.384887695312	46.39370346069336	1236.908081054688	1413.294555664062	132.6587219238281	1498.0966796875	1373.7763671875	321.3130798339844	1378.4208984375	1334.905029296875	76.84424591064453	1335.443115234375	1504.96044921875	99.48433685302734	1473.012817382812	1280.228881835938	153.9726104736328	1450.495239257812	1186.313354492188	82.61264801025391	1324.23388671875	1133.22607421875	50.14357376098633	1110.394287109375	1128.251342773438	32.58438110351562	1102.935791015625	1216.420654296875	121.9244079589844	861.5347900390625	1131.418090820312	27.22148895263672	857.0546264648438	1122.7802734375	38.26239776611328	999.8352661132812	1117.040283203125	108.0696411132812	679.647216796875	1163.82080078125	36.63899993896484	784.3599243164062	1125.39404296875	108.1421051025391	781.6109008789062	1114.394287109375	234.2511444091797	1479.70166015625	1535.681396484375	225.7154388427734	1420.307861328125	1612.425659179688	198.9484558105469	1142.590087890625	1697.08837890625	167.3601684570312	1126.792236328125	1606.315673828125	301.1669006347656	897.0313720703125	1673.282348632812	239.9820556640625	896.4915161132812	1738.125122070312	220.1783294677734	1070.111938476562	1716.897583007812	283.07080078125	708.9659423828125	1664.706176757812	316.8331909179688	801.1292724609375	1686.1943359375	256.5429077148438	810.4544677734375	1738.626586914062	241.6963500976562	1657.828125	1423.78662109375	319.8991088867188	1678.137084960938	1221.30078125	386.997802734375	1685.761474609375	1332.090209960938	163.7289123535156	1657.376342773438	1310.46484375	130.3331756591797	974.5789794921875	1207.521118164062	242.582275390625	985.7049560546875	1564.351806640625	316.4011840820312	1009.9873046875	1497.678833007812	264.2331237792969	1007.029357910156	1245.612426757812	360.3930358886719	516.076904296875	1177.63671875	284.9010620117188	642.364501953125	1167.982666015625	465.6600341796875	48.90518188476562	1172.978637695312	402.7494506835938	287.9235534667969	1162.362915039062	639.7841796875	143.8363800048828	1089.474975585938	628.76953125	122.29736328125	1152.576782226562	533.1279296875	80.89476013183594	1086.672241210938	457.6817321777344	37.90401840209961	1255.7412109375	156.134521484375	494.3534851074219	1538.234741210938	258.9534301757812	750.8865356445312	1559.892211914062	-72.18122863769531	47.02461624145508	1545.355590820312	130.186279296875	370.4811706542969	1522.371704101562	148.9784088134766	45.97592544555664	1514.931518554688	95.83440399169922	47.71506118774414	1468.730102539062	37.955322265625	38.59134674072266	1585.939453125	-123.7090072631836	52.36972045898438	1476.719970703125	
